<?xml version="1.0" ?><svg fill="white" enable-background="new 0 0 500 500" id="Layer_1" version="1.1" viewBox="0 0 500 500" xml:space="preserve" xmlns="http://www.w3.org/2000/svg" xmlns:xlink="http://www.w3.org/1999/xlink"><g><g><polygon points="394.2,414.2 120.5,414.2 120.5,345.8 147.8,345.8 147.8,386.8 366.8,386.8 366.8,113.1 147.8,113.1 147.8,167.8     120.5,167.8 120.5,85.7 394.2,85.7   "/></g><g><rect height="27.4" width="41.1" x="106.8" y="222.6"/></g><g><rect height="27.4" width="41.1" x="106.8" y="291"/></g><g><rect height="27.4" width="41.1" x="106.8" y="154.1"/></g><g><rect height="41.1" width="27.4" x="120.5" y="263.6"/></g><g><rect height="41.1" width="27.4" x="120.5" y="195.2"/></g><g><path d="M257.3,277.3c-30.2,0-54.8-24.6-54.8-54.8s24.6-54.8,54.8-54.8c30.2,0,54.8,24.6,54.8,54.8S287.5,277.3,257.3,277.3z     M257.3,195.2c-15.1,0-27.4,12.3-27.4,27.4c0,15.1,12.3,27.4,27.4,27.4c15.1,0,27.4-12.3,27.4-27.4    C284.7,207.5,272.4,195.2,257.3,195.2z"/></g><g><path d="M325.8,318.4h-27.4c0-22.6-18.4-41.1-41.1-41.1s-41.1,18.4-41.1,41.1h-27.4c0-37.7,30.7-68.4,68.4-68.4    S325.8,280.7,325.8,318.4z"/></g></g></svg>
